<svg id="Layer_1" data-name="Layer 1" xmlns="http://www.w3.org/2000/svg" viewBox="0 0 496.65 459.32"><defs><style>.cls-1{fill:#00b7bc;stroke:#fff;stroke-miterlimit:10;stroke-width:8.68px;}</style></defs><title>PDM_icon_teal4.0_square</title><path class="cls-1" d="M244.07,293.54s-2.85-20.3-4.29-47.37c-2.58-48.89-.5-119.88,31.55-133.17l195.45-81s-11.68,93.27-150.92,165.6c0,0-37.2,15.43-41.84,50.18l-3.81,31.5-2.13,30-10.58,4.39-11.07-2.14Z" transform="translate(-8.32 -25.08)"/><path class="cls-1" d="M19.43,422l-6.7,11.81,0.78,14.16S18,464.09,25.63,473.25c0,0,61.67,29.19,188.52-33.34,0,0,79.15-66.69,127.61-75.79,0,0,37.91-5.72,57.4-44.7,1.71-3.43,2.08-14.84.77-19.89l-9.43-21.17s-10.09-49.59-36.92-69.78l-10.47-18.87-30.63-1.61s-13.85-.77-16.22,8.9c0,0,1.37,24-12.38,33.62,0,0-21.51,19-49,11.56,0,0,6.36-29.14-11.12-32.09l-31.21-2.17a26.64,26.64,0,0,0-10.38,8.26c-2,2.59-12.24,33.54-28.3,66-21.69,43.78-51.08,91.9-57.74,92.43C96.17,374.57,26.47,418.79,19.43,422Z" transform="translate(-8.32 -25.08)"/><path class="cls-1" d="M275.44,269.27c-3.95-48.8-.94-118.29,30.72-132.48L499.28,50.32s-15.9,89.8-153.06,166c0,0-38.88,21-42.55,55.92" transform="translate(-8.32 -25.08)"/></svg>